<?xml version="1.0" encoding="UTF-8" standalone="no"?>
<!-- Generator: Adobe Illustrator 16.0.0, SVG Export Plug-In . SVG Version: 6.00 Build 0)  -->

<svg
   version="1.1"
   id="Layer_1"
   x="0px"
   y="0px"
   width="255px"
   height="88px"
   viewBox="0 0 255 88"
   enable-background="new 0 0 255 88"
   xml:space="preserve"
   sodipodi:docname="Logo_icon_MAAC.svg"
   inkscape:version="1.2 (dc2aedaf03, 2022-05-15)"
   xmlns:inkscape="http://www.inkscape.org/namespaces/inkscape"
   xmlns:sodipodi="http://sodipodi.sourceforge.net/DTD/sodipodi-0.dtd"
   xmlns="http://www.w3.org/2000/svg"
   xmlns:svg="http://www.w3.org/2000/svg"><defs
   id="defs173" /><sodipodi:namedview
   id="namedview171"
   pagecolor="#ffffff"
   bordercolor="#000000"
   borderopacity="0.25"
   inkscape:showpageshadow="2"
   inkscape:pageopacity="0.0"
   inkscape:pagecheckerboard="0"
   inkscape:deskcolor="#d1d1d1"
   showgrid="false"
   inkscape:zoom="11.313709"
   inkscape:cx="119.36846"
   inkscape:cy="46.757436"
   inkscape:window-width="1920"
   inkscape:window-height="1017"
   inkscape:window-x="1912"
   inkscape:window-y="-8"
   inkscape:window-maximized="1"
   inkscape:current-layer="g168" />
<g
   id="g168">
	
	
	
	
	
	
	
	
	
	
	
	
	
	
	
	
	
	
	
	
	
	
	
	
	
	
	
	
	
	
	
	
	
	
	
	
	
	
	
	
	
	
	
	
	
	
	
	
	
	
	<path
   fill-rule="evenodd"
   clip-rule="evenodd"
   fill="#87b7c0"
   d="m 153.40399,43.777124 c -0.047,-0.063 -0.086,-0.132 -0.131,-0.197 0.01,0.022 0.021,0.046 0.031,0.069 0.044,0.066 0.079,0.114 0.1,0.128"
   id="path112" />
	<path
   fill-rule="evenodd"
   clip-rule="evenodd"
   fill="#87b7c0"
   d="m 160.79299,57.422124 c -0.77,-1.003 -1.455,-2.085 -2.126,-3.155 -0.515,-0.811 -0.988,-1.424 -1.36,-2.274 -0.761,-1.687 -3.072,-2.095 -3.674,-3.563 -0.588,-1.433 -0.534,-3.247 -0.435,-4.962 0.024,0.037 0.05,0.075 0.075,0.112 -0.023,-0.048 -0.048,-0.093 -0.075,-0.134 0.048,-0.814 0.105,-1.607 0.108,-2.324 0.022,-4.738 0.094,-17.4 -7.324,-17.066 -1.807,0.068 -3.04,-1.148 -4.919,-0.368 -1.364,0.566 -2.445,1.666 -3.37,2.786 -1.843,2.222 -2.443,5.951 -3.114,8.67 -0.403,1.651 -0.696,3.341 -1.062,5.009 -2.262,-0.841 -4.01,-1.545 -4.233,-1.809 -0.132,-0.413 -0.059,-0.773 0.21,-1.067 0.091,0.108 0.126,0.232 0.104,0.365 0.084,-0.047 1.167,-1.313 0.783,-0.81 0.274,-0.313 1.937,-1.462 1.827,-1.905 0.035,0.149 0.085,0.483 0.061,0.634 0.103,-0.3 0.188,-0.602 0.252,-0.906 0.055,0.041 0.077,0.095 0.073,0.165 0.155,-0.523 0.708,-1.084 0.743,-1.111 -0.029,0.161 -0.087,0.315 -0.17,0.465 0.25,-0.379 0.472,-1.024 0.47,-1.582 -0.017,-0.169 -0.042,-0.339 -0.079,-0.506 0.055,0.15 0.078,0.324 0.079,0.506 0.002,0.021 0.008,0.04 0.01,0.061 0.053,-0.205 0.088,-0.42 0.11,-0.637 0.052,0.146 0.077,0.287 0.076,0.438 0.167,-0.481 0.181,-1.246 0.09,-1.733 -0.006,-0.034 0.27,0.388 0.246,0.53 0.091,-0.557 0.111,-0.054 0.094,0.043 0.091,-0.581 0.248,-1.024 -0.167,-1.607 -0.152,-0.212 0.276,0.347 0.311,0.035 0.018,-0.17 -0.323,-2.228 -0.199,-2.105 0.092,0.136 0.127,0.276 0.112,0.42 0.622,-2.318 -0.697,-6.219 -2.503,-7.655 -0.435,-0.343 -0.654,-1.035 -1.023,-1.448 -0.698,-0.788 -1.639,-0.785 -2.487,-1.206 -0.728,-0.364 -1.818,-0.196 -2.508,-0.622 -3.89,-2.404 -8.277,1.375 -9.946,4.793 0.13,0.012 0.251,-0.028 0.361,-0.126 -0.289,0.251 -0.587,0.487 -0.9,0.713 0.068,0 0.136,-0.003 0.204,-0.01 0.011,-0.048 -0.651,1.235 -0.976,1.845 -0.077,0.259 -0.195,0.84 -0.183,0.988 0.035,-0.061 0.279,-0.364 0.294,-0.358 0.032,0.017 -0.425,1.391 -0.615,1.938 0.085,0.134 0.114,0.277 0.096,0.43 0.03,-0.112 0.058,-0.187 0.085,-0.2 -0.027,0.012 -0.111,0.428 -0.144,0.475 -0.111,0.617 -0.195,1.637 -0.073,1.833 0.063,-0.143 0.089,-0.293 0.076,-0.448 -0.012,0.133 0.201,0.72 0.159,0.889 0.016,-0.148 0.027,-0.296 0.042,-0.44 -0.037,0.303 0.242,1.292 0.231,1.791 0.01,-0.106 0.038,-0.213 0.057,-0.319 -0.027,0.53 0.195,1.255 0.144,1.815 0.054,-0.154 0.117,-0.305 0.193,-0.453 0.355,0.02 0.398,2.032 0.379,2.33 0.006,-0.108 0.258,-0.696 0.294,-0.837 0.021,-0.087 0.054,0.572 0.047,0.622 0.038,-0.214 0.239,-0.718 0.215,-0.837 0.131,0.624 -0.242,1.261 -0.124,1.841 0.066,-0.139 0.114,-0.294 0.155,-0.449 0.172,-0.133 0.158,1.526 0.362,1.142 0.018,-0.234 0.091,-0.446 0.23,-0.635 0.271,-0.154 0.343,0.733 0.287,0.834 0.052,-0.211 0.134,-0.41 0.247,-0.598 0.397,0.075 0.073,1.096 0.127,1.316 0.135,-0.147 0.237,-0.312 0.309,-0.495 0.197,0.149 0.273,0.354 0.232,0.619 0.016,-0.149 0.077,-0.895 0.204,-0.75 0.035,0.227 0.104,0.433 0.214,0.622 0.097,-0.221 0.145,-0.448 0.138,-0.691 0.118,0.35 0.573,0.946 0.368,1.37 0.104,-0.278 0.167,-0.563 0.191,-0.86 0.02,0.337 0.151,0.657 0.078,1.009 0.015,-0.104 0.184,-1.037 0.306,-1.08 0.127,0.113 0.201,0.247 0.22,0.41 0.045,-0.064 0.165,-0.805 0.288,-0.639 0.914,1.226 -1.303,2.693 -2.113,3.049 0.105,-0.046 -6.484,1.637 -7.116,2.26 0.013,-0.047 0.027,-0.089 0.037,-0.118 0.236,-0.722 -0.016,-1.821 0.688,-1.849 1.248,-0.046 0.481,-1.032 0.718,-1.613 0.354,-0.86 0.583,-1.925 0.433,-2.85 -0.175,-1.073 -0.656,0.018 -1.057,-0.299 -0.143,-0.115 0.366,-2.829 0.442,-2.768 -0.084,-0.163 -0.599,-1.598 -0.055,-1.209 -0.232,-0.423 -0.275,-0.733 -0.332,-0.912 0.102,0.162 0.205,0.19 0.325,0.344 -0.201,-0.399 -0.474,-0.979 -0.594,-1.407 -0.004,-0.022 0.38,0.252 0.487,0.332 -0.116,-0.261 -0.394,-0.884 -0.521,-0.971 0.08,-0.038 0.309,-0.019 0.465,-0.006 -0.058,-0.087 -0.382,-0.133 -0.583,-0.238 0.529,-0.239 -0.558,-0.753 -0.021,-0.64 -0.087,-0.123 -0.514,-0.297 -0.611,-0.343 0.118,-0.01 0.172,-0.18 0.816,-0.046 -0.492,-0.134 -0.655,-0.235 -0.737,-0.324 0.001,-0.003 0.001,-0.005 0.002,-0.008 -0.002,-0.005 -0.003,-0.01 -0.007,-0.014 -0.001,0.005 -0.002,0.008 -0.004,0.013 -0.082,-0.096 -0.075,-0.179 -0.286,-0.274 0.141,-0.049 0.053,0.063 0.753,0.271 -0.214,-0.227 -0.432,-0.415 -0.795,-0.49 0.104,-0.083 0.717,-0.3 0.818,-0.352 -0.793,0.208 -0.919,-0.061 -1.134,0.015 0.068,-0.107 0.429,-0.291 0.806,-0.374 -0.193,-0.054 -0.619,-0.036 -0.938,0.08 0.091,-0.135 0.709,-0.409 1.089,-0.55 -0.135,0.012 -0.845,0.332 -1.134,0.321 0.227,-0.142 0.444,-0.291 0.655,-0.45 -0.648,0.299 -0.443,0.204 -0.831,0.076 0.18,-0.063 0.509,-0.283 0.631,-0.373 -0.214,0.02 -0.635,0.199 -0.849,0.224 0.125,-0.147 0.19,-0.218 0.354,-0.321 -0.195,0.024 -0.597,0.198 -0.859,0.333 0.048,-0.107 0.307,-0.418 0.521,-0.459 -0.052,-0.064 -0.655,0.2 -1.072,0.146 0.083,-0.111 0.581,-0.491 0.823,-0.628 -0.234,0.037 -1.058,0.408 -1.458,0.556 -0.091,-0.263 0.831,-0.646 1.131,-1.032 -0.217,0.084 -1.022,0.438 -1.246,0.574 0.095,-0.201 0.592,-0.375 0.952,-0.753 -0.234,0.005 -1.255,0.83 -1.605,0.683 -0.047,-0.124 0.406,-0.447 0.654,-0.646 -0.219,0.066 -0.79,0.441 -0.958,0.578 0.054,-0.188 0.184,-0.33 0.398,-0.587 -0.182,0.063 -0.382,0.165 -0.516,0.386 0.074,-0.186 0.143,-0.57 0.414,-0.797 -0.177,0.024 -0.571,0.338 -0.926,0.429 0.053,-0.151 0.113,-0.273 0.157,-0.468 -0.251,0.25 -0.38,0.347 -0.698,0.441 0.089,-0.131 0.119,-0.24 0.303,-0.384 -0.252,0.035 -0.485,0.272 -0.761,0.346 0.069,-0.153 -0.442,-0.021 -0.096,-0.727 -0.174,0.006 -0.102,0.056 -0.289,0.229 -0.011,-0.097 0.072,-0.442 -0.008,-0.616 -0.035,0.206 -0.424,0.694 -0.648,0.831 0.048,-0.125 0.089,-0.378 0.179,-0.547 -0.142,0.094 -0.276,0.401 -0.343,0.507 -0.014,-0.091 -0.002,-0.495 -0.113,-0.563 -0.036,0.191 -0.149,0.374 -0.364,0.626 -0.144,-0.11 -0.333,-0.392 -0.234,-0.69 -0.08,0.066 -0.168,0.73 -0.41301,0.866 0.034,-0.189 0.15901,-0.328 0.094,-0.491 -0.052,0.136 -0.294,0.519 -0.545,0.73 0.033,-0.151 0.194,-0.433 0.194,-0.433 0,0 -0.386,0.435 -0.449,0.512 0.101,-0.324 0.333,-0.555 0.358,-0.615 -0.185,0.144 -0.548,0.562 -0.597,0.667 -0.042,-0.213 0.233,-0.696 0.401,-0.877 -0.118,0.033 -0.713,0.929 -0.859,1.058 -0.088,-0.081 0.186,-0.939 0.241,-1.051 -0.145,0.108 -0.363,0.438 -0.538,0.653 -0.002,-0.212 0.128,-0.377 0.186,-0.62 -0.076,-0.007 -0.349,0.511 -0.409,0.74 -0.053,-0.283 0.099,-0.708 0.094,-0.887 -0.089,0.113 -0.315,0.518 -0.372,0.726 -0.063,-0.159 -0.013,-0.758 0.059,-0.923 -0.043,0.099 -0.280996,0.969 -0.280996,1.212 -0.059,-0.056 -0.075,-0.178 -0.285,-0.489 0.162,0.35 0.081,0.29 0.076,0.343 -0.219,-0.132 -0.123,-0.207 -0.464,-0.525 -0.005,0.077 0.055,0.486 0.267,0.752 -0.211,-0.051 -0.247,-0.094 -0.366,-0.26 0.028,0.118 -0.064,0.289 0.003,0.43 -0.169,-0.073 -0.271,-0.256 -0.288,-0.491 -0.03,0.096 0.031,0.548 0.076,0.722 -0.147,-0.124 -0.291,-0.483 -0.383,-0.763 0.036,0.252 0.026,0.506 -0.031,0.755 -0.687,-0.18 0.077,0.064 -0.173,0.057 -0.386,-0.012 -0.326,-0.129 -0.646,-0.131 0.206,0.114 0.674,0.504 0.835,0.671 -0.227,-0.037 -0.808,-0.516 -1.039,-0.494 0.277,0.099 0.745,0.565 0.643,0.575 -0.103,-0.106 -0.693,-0.461 -0.858,-0.358 0.261,0.113 0.443,0.271 0.534,0.332 -0.192,0.008 -0.412,-0.148 -0.667,-0.109 0.217,0.165 0.34,0.296 0.488,0.404 -0.208,-0.018 -0.725,-0.123 -0.923,-0.062 0.227,0.063 0.487,0.196 0.708,0.317 -0.389,-0.099 -0.784,-0.149 -1.186,-0.143 0.83,0.331 0.326,0.413 -0.009,0.358 0.127,0.053 0.217,0.149 0.267,0.287 -0.122,0.006 -0.458,-0.313 -0.608,-0.4 0.06,0.217 0.031,0.331 0.16,0.424 -0.157,-0.013 -0.402,-0.034 -0.488,0.049 0.229,0.037 0.512,0.12 0.754,0.219 -0.156,0.021 -0.571,0.131 -0.93,0.041 0.262,0.081 0.494,0.079 0.756,0.198 -0.193,-0.002 -0.753,0.032 -0.819,0.318 0.183,-0.101 0.904,-0.177 1.123,0.013 -0.143,0.068 -0.25,0.193 -0.484,0.214 0.187,0.078 0.295,0.163 0.412,0.153 -0.204,0.137 -0.311,0.259 -0.55,0.319 0.173,0.027 0.171,0.05 0.289,0.037 -0.385,0.283 -1.268,0.823 -1.495,1.274 0.348,-0.261 0.61,-0.359 0.856,-0.355 -0.323,0.322 -0.744,0.88 -1.076,1.359 0.184,-0.139 0.573,-0.375 0.432,-0.099 0.082,0.286 -0.394,1.145 -0.574,1.342 0.257,-0.095 0.306,0.046 0.406,-0.005 -0.069,0.15 -0.643,0.279 -0.823,0.336 0.162,0.029 0.714,0.199 0.713,0.313 -0.697,0.526 0.814,3.441 1.07,4.34 -0.012,0.154 0.665,1.127 0.416,1.568 -0.196,0.343 -1.075,-0.41 -0.728,0.787 0.24,0.831 0.328,1.515 0.94,2.182 0.467,0.503 0.601,0.96 0.953,1.502 0.455,0.698 1.001,-0.344 1.396,-0.123 1.026,0.566 3.749996,5.357 1.985996,5.982 -5.123996,1.821 -9.327996,5.612 -10.528996,11.479 -0.858,4.189 1.957,10.531 0.964,14.713 2.367,0.592 4.81414,0.96319 5.720744,0.984785 0.022,-0.692 0.851256,0.314215 2.421256,0.07922 3.719006,-0.556 14.077006,-5.724 17.771006,-3.231 1.727,1.165 2.74,1.709 5.333,0.521 -0.12,0.471 0.572,0.41 0.403,0.828 l 2.801,2.574 c 9.343,-9.938 17.256,-1.287 27.008,-1.449 0.246,-0.899 0.43226,1.132041 1.05126,0.450041 -0.112,0.122 0.34711,-0.630694 0.50511,0.474306 2.11326,-0.634438 3.18271,-0.612616 6.11606,-1.066104 -0.36397,-0.805043 -0.23143,-1.819243 -0.21743,-2.750243 0.047,-3.305 -0.834,-8.092 0.158,-11.264 0.331,-1.048 1.362,-1.897 0.647,-2.814"
   id="path114"
   sodipodi:nodetypes="ccccccccccccccccccccccccccccccccccccccccccccccccccccccccccccccccccccccccccccccccccccccccccccccccccccccccccccccccccccccccccccccccccccccccccccccccccccccccccccccccccccccccccccccccccccccccccccccccccccccccccccccccccccccccccccccccccccc" />
	
	
	
	
	
	
	
	
	
		
	
	
	
	
	
	
		
	
		
	
	
	
	
	
	
	<path
   fill="#ac95c4"
   d="m 91.161984,73.903124 c 0,0 0.134,0.049 0.386,0.141 0.125,0.045 0.28,0.102 0.463,0.168 0.178,0.039 0.384,0.084 0.614,0.135 0.22,0.063 0.491,0.076 0.775,0.111 0.281,0.045 0.594,0.047 0.925,0.053 0.661,0.02 1.412,-0.061 2.222,-0.167 0.814,-0.132 1.689,-0.305 2.611,-0.556 0.919996,-0.238 1.892996,-0.529 2.894996,-0.844 2.00601,-0.65 4.16001,-1.369 6.39401,-2.017 1.113,-0.328 2.248,-0.651 3.393,-0.936 1.143,-0.292 2.322,-0.485 3.487,-0.546 0.294,-0.001 0.587,-0.003 0.876,0.006 0.146,0.004 0.29,0.008 0.433,0.012 0.145,0.016 0.29,0.031 0.433,0.046 0.288,0.03 0.57,0.067 0.85,0.108 0.279,0.062 0.555,0.121 0.827,0.182 0.137,0.031 0.271,0.063 0.404,0.094 0.132,0.044 0.263,0.087 0.394,0.129 0.257,0.088 0.512,0.174 0.762,0.259 0.245,0.106 0.482,0.221 0.714,0.328 0.23,0.11 0.458,0.208 0.666,0.349 0.853,0.496 1.553,1.068 2.09,1.635 0.262,0.292 0.509,0.556 0.706,0.822 0.181,0.279 0.347,0.533 0.497,0.765 0.155,0.219 0.25,0.448 0.337,0.641 0.088,0.19 0.159,0.353 0.211,0.487 0.109,0.266 0.31393,0.630334 0.31393,0.630334 l -0.46393,0.01966 c 0,0 -0.138,-0.07 -0.378,-0.207 -0.25,-0.125 -0.563,-0.357 -1.006,-0.572 -0.214,-0.107 -0.451,-0.227 -0.708,-0.357 -0.253,-0.123 -0.547,-0.223 -0.833,-0.354 -0.586,-0.236 -1.253,-0.438 -1.969,-0.604 -0.357,-0.084 -0.743,-0.131 -1.125,-0.203 -0.196,-0.02 -0.397,-0.039 -0.601,-0.06 -0.201,-0.024 -0.406,-0.046 -0.619,-0.048 -0.211,-0.01 -0.424,-0.021 -0.641,-0.031 -0.218,-0.004 -0.442,0.006 -0.666,-0.002 -0.443,-0.021 -0.92,0.019 -1.391,0.004 -0.961,0.033 -1.977,0.026 -3.041,0.094 -1.063,0.062 -2.159,0.178 -3.257,0.364 -1.096,0.18 -2.203,0.395 -3.3,0.606 -1.094,0.22 -2.189,0.412 -3.253,0.593 -1.07001,0.171 -2.10501,0.341 -3.108006,0.432 -0.997,0.107 -1.957,0.144 -2.842,0.145 -0.89,-0.021 -1.704,-0.089 -2.419,-0.233 -0.356,-0.068 -0.688,-0.131 -0.989,-0.233 -0.301,-0.096 -0.575,-0.166 -0.82,-0.286 -0.241,-0.105 -0.457,-0.201 -0.644,-0.283 -0.167,-0.101 -0.308,-0.185 -0.423,-0.254 -0.229,-0.137 -0.352,-0.21 -0.352,-0.21 z"
   id="path160"
   sodipodi:nodetypes="ccccccccccccccccccccccccccccccccccccccccccccccccccccc" />
	
	<path
   fill="#ac95c4"
   d="m 160.23899,74.258124 c 0,0 -0.122,0.073 -0.351,0.21 -0.114,0.069 -0.256,0.154 -0.422,0.254 -0.187,0.082 -0.402,0.178 -0.644,0.283 -0.245,0.12 -0.518,0.191 -0.819,0.285 -0.301,0.104 -0.632,0.166 -0.99,0.235 -0.713,0.144 -1.529,0.21 -2.418,0.233 -0.883,-0.002 -1.844,-0.039 -2.841,-0.146 -1.003,-0.091 -2.039,-0.261 -3.108,-0.432 -1.064,-0.181 -2.159,-0.373 -3.254,-0.593 -1.095,-0.212 -2.202,-0.427 -3.299,-0.606 -1.099,-0.187 -2.193,-0.303 -3.256,-0.364 -1.063,-0.066 -2.08,-0.061 -3.042,-0.094 -0.471,0.015 -0.947,-0.025 -1.39,-0.004 -0.224,0.008 -0.448,-0.002 -0.667,0.002 -0.216,0.011 -0.429,0.021 -0.639,0.031 -0.215,0.002 -0.42,0.023 -0.62,0.048 -0.204,0.021 -0.404,0.04 -0.602,0.06 -0.381,0.071 -0.768,0.119 -1.125,0.203 -0.715,0.166 -1.382,0.367 -1.97,0.604 -0.285,0.13 -0.578,0.23 -0.832,0.354 -0.257,0.131 -0.494,0.25 -0.707,0.357 -0.444,0.215 -0.757,0.447 -1.007,0.572 -0.24,0.137 -0.378,0.207 -0.378,0.207 l -0.48246,-0.01664 c 0,0 0.22346,-0.368335 0.33246,-0.633335 0.052,-0.135 0.124,-0.297 0.211,-0.488 0.087,-0.191 0.182,-0.421 0.337,-0.64 0.151,-0.23 0.316,-0.485 0.496,-0.764 0.198,-0.269 0.445,-0.531 0.707,-0.823 0.537,-0.566 1.236,-1.139 2.089,-1.635 0.208,-0.141 0.436,-0.238 0.667,-0.349 0.232,-0.107 0.469,-0.222 0.714,-0.328 0.25,-0.085 0.504,-0.171 0.763,-0.259 0.129,-0.042 0.261,-0.086 0.394,-0.129 0.133,-0.031 0.268,-0.063 0.402,-0.094 0.272,-0.061 0.549,-0.12 0.829,-0.182 0.278,-0.04 0.561,-0.079 0.847,-0.107 0.144,-0.016 0.289,-0.031 0.434,-0.047 0.143,-0.004 0.289,-0.008 0.432,-0.012 0.291,-0.009 0.584,-0.007 0.878,-0.006 1.166,0.061 2.345,0.254 3.488,0.546 1.144,0.285 2.279,0.607 3.393,0.936 2.233,0.647 4.387,1.366 6.393,2.017 1.002,0.315 1.975,0.605 2.895,0.844 0.922,0.252 1.797,0.424 2.61,0.556 0.811,0.106 1.562,0.187 2.222,0.167 0.332,-0.004 0.645,-0.008 0.926,-0.054 0.283,-0.034 0.556,-0.048 0.774,-0.11 0.231,-0.051 0.436,-0.096 0.614,-0.135 0.182,-0.066 0.337,-0.123 0.463,-0.168 0.252,-0.092 0.386,-0.141 0.386,-0.141 z"
   id="path164"
   sodipodi:nodetypes="ccccccccccccccccccccccccccscccccccccccccccccccccccccc" />
	
</g>
</svg>
