<?xml version="1.0" encoding="UTF-8" standalone="no"?>
<svg
   version="1.1"
   id="Layer_1"
   x="0px"
   y="0px"
   width="100%"
   viewBox="0 0 2048 2048"
   enable-background="new 0 0 2048 2048"
   xml:space="preserve"
   sodipodi:docname="MAAC_LOGO.svg"
   inkscape:version="1.2 (dc2aedaf03, 2022-05-15)"
   xmlns:inkscape="http://www.inkscape.org/namespaces/inkscape"
   xmlns:sodipodi="http://sodipodi.sourceforge.net/DTD/sodipodi-0.dtd"
   xmlns="http://www.w3.org/2000/svg"
   xmlns:svg="http://www.w3.org/2000/svg"><defs
   id="defs403" /><sodipodi:namedview
   id="namedview401"
   pagecolor="#505050"
   bordercolor="#eeeeee"
   borderopacity="1"
   inkscape:showpageshadow="0"
   inkscape:pageopacity="0"
   inkscape:pagecheckerboard="0"
   inkscape:deskcolor="#505050"
   showgrid="false"
   inkscape:zoom="0.28898846"
   inkscape:cx="389.2889"
   inkscape:cy="858.16576"
   inkscape:window-width="1920"
   inkscape:window-height="1017"
   inkscape:window-x="-8"
   inkscape:window-y="-8"
   inkscape:window-maximized="1"
   inkscape:current-layer="layer1" />






































































































































































































<g
   inkscape:groupmode="layer"
   id="layer1"
   inkscape:label="circle"><ellipse
     style="fill:#00ffff;stroke-width:0.925805"
     id="path559"
     cx="1024.2623"
     cy="1022.5323"
     rx="916.99164"
     ry="911.80115" /></g><g
   id="g494"
   sodipodi:insensitive="true"><path
     fill="#353536"
     opacity="1"
     stroke="none"
     d="m 650.05029,1477.4253 c -2.98047,-0.2488 -5.87823,-0.5524 -9.21277,-1.1786 0.81958,-5.4419 5.48621,-5.6344 9.28022,-6.7447 12.21362,-3.5741 24.64898,-6.4468 36.72424,-10.4239 15.10126,-4.9739 29.90778,-10.837 44.88568,-16.1931 8.10339,-2.8977 16.24585,-5.7097 24.46759,-8.2462 7.73004,-2.3848 15.75696,-3.886 23.35004,-6.6185 12.02057,-4.326 23.75519,-9.329 36.94031,-8.8431 12.966,0.478 25.99572,0.024 38.89911,1.1292 8.96307,0.7673 17.88433,3.0286 26.59997,5.4347 11.59491,3.201 22.96881,7.2015 34.44556,10.8335 1.7257,0.546 3.50567,0.9184 5.24047,1.4382 3.92884,1.1775 8.23157,1.7288 11.69086,3.7299 8.89698,5.1469 17.44226,10.9065 26.05829,16.5281 1.09021,0.7113 1.76276,2.0628 3.60596,4.3082 -3.99164,0.2729 -6.53174,0.5964 -9.07208,0.5981 -52.97528,0.034 -105.95063,0 -158.92566,0.119 -2.97181,0.01 -5.94104,1.1962 -8.91144,1.8351 0,0 0.0982,0.1477 -0.29645,-0.01 -1.48584,-0.2762 -2.57715,-0.3967 -4.04126,-0.6242 -12.17206,0.5862 -23.97375,1.2441 -35.76648,2.0345 -1.00946,0.068 -1.96002,1.0154 -2.93799,1.5542 -0.74688,0.1282 -1.49371,0.2564 -2.93786,0.1479 -1.47785,-0.3851 -2.25843,-0.5331 -3.38953,-0.7728 -4.21521,1.1604 -8.07983,2.4124 -11.94446,3.6644 -8.37262,0.1411 -16.74524,0.2822 -25.78119,0.1728 -1.41064,-0.3962 -2.15802,-0.542 -3.3006,-0.7998 -6.93707,-0.6427 -13.44891,-1.0287 -18.90539,3.7045 -0.78271,0.1203 -1.56549,0.2407 -3.04688,0.1002 -5.71331,-0.3641 -10.72796,-0.4673 -16.06311,-0.6646 -2.73828,1.1147 -5.15612,2.3232 -7.57397,3.5318 6e-5,0 0.002,0.1985 -0.0812,0.2534 z"
     id="path374" /><path
     fill="#5a535e"
     opacity="1"
     stroke="none"
     d="m 743.48535,1468.3225 c 0.56708,-0.7738 1.51764,-1.7214 2.5271,-1.7892 11.79273,-0.7904 23.59442,-1.4483 35.42932,-1.8419 -2.70843,1.3807 -5.45251,2.462 -8.19659,3.5433 -9.78296,0.1076 -19.56598,0.2151 -29.75983,0.088 z"
     id="path378" /><path
     fill="#7b617e"
     opacity="1"
     stroke="none"
     d="m 1367.5786,1471.775 c 7.4756,-2.2867 14.8193,-0.6054 22.2268,2.4286 -3.8197,0.013 -7.8345,-0.1152 -11.8176,-0.5405 -3.3984,-0.3631 -6.7606,-1.0683 -10.4092,-1.8881 z"
     id="path380" /><path
     fill="#5a535e"
     opacity="1"
     stroke="none"
     d="m 677.21991,1474.4258 c 5.052,-4.9545 11.56384,-4.5685 18.50665,-3.53 0.41925,0.7707 0.43732,1.0339 0.45539,1.2969 -1.67395,0.1779 -3.34791,0.3559 -5.82489,0.3464 -3.2721,0.4349 -5.74115,1.0572 -8.21021,1.6797 -1.50751,0.1428 -3.01495,0.2856 -4.92694,0.207 z"
     id="path382" /><path
     fill="#7b617e"
     opacity="1"
     stroke="none"
     d="m 658.02588,1473.7341 c 5.01471,0.1033 10.02936,0.2065 15.3446,0.5491 -1.61456,0.5822 -3.52124,0.985 -5.44647,1.2561 -5.07239,0.714 -10.15277,1.3707 -15.31634,1.6995 1.74847,-1.4023 3.58337,-2.4534 5.41821,-3.5047 z"
     id="path384" /><path
     fill="#5a535e"
     opacity="1"
     stroke="none"
     d="m 725.20483,1471.3552 c 3.46241,-1.4802 7.32703,-2.7322 11.55365,-3.4966 0.38355,0.7509 0.40515,1.0141 0.42676,1.2774 -0.40106,0.1394 -0.80218,0.2787 -1.8454,0.3627 -2.16156,0.5352 -3.68103,1.1259 -5.2005,1.7165 -1.5108,0.1228 -3.02154,0.2455 -4.93451,0.14 z"
     id="path386" /><path
     fill="#7b617e"
     opacity="1"
     stroke="none"
     d="m 773.53302,1468.3726 c 2.45624,-1.2192 5.20032,-2.3005 8.28155,-3.5743 1.42847,-0.072 2.51978,0.049 3.95191,0.3955 -3.75458,1.2564 -7.8501,2.2864 -12.23346,3.1788 z"
     id="path388" /><path
     fill="#5a535e"
     opacity="1"
     stroke="none"
     d="m 657.70544,1473.6403 c -1.5144,1.1451 -3.3493,2.1962 -5.41394,3.5074 -0.67987,0.3012 -1.13006,0.3423 -1.87011,0.2037 2.12793,-1.3881 4.54577,-2.5966 7.28405,-3.7111 z"
     id="path390" /><path
     fill="#7b617e"
     opacity="1"
     stroke="none"
     d="m 682.48901,1474.3285 c 2.1269,-0.7322 4.59595,-1.3545 7.45069,-1.8549 -2.11243,0.7364 -4.61054,1.3505 -7.45069,1.8549 z"
     id="path392" /><path
     fill="#7b617e"
     opacity="1"
     stroke="none"
     d="m 730.44128,1471.3226 c 1.21753,-0.698 2.737,-1.2887 4.57935,-1.8055 -1.21045,0.687 -2.7439,1.2999 -4.57935,1.8055 z"
     id="path394" /><path
     fill="#7b617e"
     opacity="1"
     stroke="none"
     d="m 696.40271,1472.3105 c -0.23883,-0.3808 -0.2569,-0.644 -0.28082,-1.3028 0.74151,-0.2499 1.48889,-0.1041 2.41376,0.2643 -0.51905,0.5338 -1.21564,0.8452 -2.13294,1.0385 z"
     id="path396" /><path
     fill="#7b617e"
     opacity="1"
     stroke="none"
     d="m 737.38916,1469.2738 c -0.22553,-0.4011 -0.24713,-0.6643 -0.28009,-1.3236 0.7691,-0.2479 1.54968,-0.1 2.64642,0.2821 -0.51001,0.549 -1.33624,0.8641 -2.36633,1.0415 z"
     id="path398" /><g
     id="g470"
     style="display:inline"><path
       fill="#7b617e"
       opacity="1"
       stroke="none"
       d="m 649.96753,1477.4801 c -0.89234,0.3596 -1.7655,0.9705 -2.67993,1.0404 -11.08264,0.8462 -22.22632,1.1737 -33.23944,2.5523 -7.448,0.9322 -14.7237,3.2766 -22.05896,5.0615 -4.96863,1.209 -9.87256,2.7022 -14.86798,3.7779 -5.45966,1.1761 -10.96778,2.1848 -16.49714,2.9671 -9.32116,1.3187 -18.69616,2.2619 -28.00994,3.6264 -7.86322,1.1519 -15.69507,2.5567 -23.49991,4.0613 -16.9997,3.277 -33.93689,6.8908 -50.97129,9.9706 -10.30987,1.8641 -20.73632,3.1322 -31.14428,4.3872 -6.21717,0.7496 -11.29697,-2.3497 -15.67585,-6.2599 -4.96545,-4.4341 -9.46658,-9.3839 -14.28979,-13.9834 -1.78125,-1.6987 -3.94385,-2.9908 -5.85577,-4.5619 -0.98642,-0.8104 -2.32041,-1.6876 -2.61051,-2.7719 -1.32645,-4.9587 -2.95959,-9.9518 -3.36255,-15.0217 -2.4114,-30.3395 -4.50995,-60.7042 -6.72079,-91.0598 -1.24655,-17.1156 -2.53916,-34.2277 -3.75379,-51.3457 -1.67239,-23.5686 -4.11444,-47.1196 -4.72662,-70.7171 -0.79224,-30.5385 4.05811,-60.5354 14.6965,-89.2046 5.54371,-14.9395 12.93235,-29.236 20.05768,-43.5388 16.13083,-32.3797 36.13342,-62.0789 61.48517,-88.1037 16.02859,-16.4541 35.46301,-27.464 56.08524,-36.7251 10.47448,-4.70383 21.24597,-8.75162 31.67907,-13.54075 8.17701,-3.75354 9.85395,-11.88507 9.58521,-19.453 -0.24604,-6.92456 -1.85492,-14.43884 -5.11841,-20.47375 -5.34869,-9.89075 -12.20337,-19.04212 -19.11694,-27.96784 -2.19483,-2.83368 -6.4137,-5.06952 -10.02424,-5.67132 -17.10534,-2.85077 -30.441,-11.05664 -39.98284,-25.59919 -4.10715,-6.2597 -9.07956,-11.97601 -12.90622,-18.3883 -3.54853,-5.94623 -6.20749,-12.44043 -9.0398,-18.79077 -1.75394,-3.93262 -2.94134,-8.11628 -4.66189,-12.06574 -3.79718,-8.71619 -2.63932,-17.65497 0.36807,-25.89489 3.30224,-9.04798 0.75729,-16.86518 -1.70246,-25.21674 -4.13055,-14.0246 -7.55886,-28.25525 -11.6336,-42.29737 -6.48169,-22.33666 -4.20627,-45.04315 -2.18201,-67.5097 1.01196,-11.23102 5.02829,-22.38586 8.93662,-33.11963 7.39041,-20.29712 13.82815,-41.26434 27.47839,-58.50042 7.29938,-9.21692 16.23084,-17.1446 24.46457,-25.6164 2.78586,-2.86639 5.75913,-5.55121 8.53079,-8.4306 19.17011,-19.91529 42.5343,-29.41443 70.17719,-28.55402 9.82538,0.30591 19.68994,0.82721 29.487,0.31018 36.54504,-1.92853 68.60455,10.07013 98.49981,30.05725 25.84357,17.2782 44.52295,40.08008 54.39588,69.47174 4.75457,14.15436 8.27905,28.8562 10.86615,43.57282 3.88568,22.1037 6.42376,44.44324 9.60705,66.67218 1.10895,7.74402 2.03278,15.54669 3.73651,23.16711 4.08985,18.2937 0.82264,35.50812 -5.50756,52.82135 -6.73127,18.41065 -15.61945,36.23981 -18.34174,55.88892 -1.47754,10.66443 -1.58362,21.54883 -1.70142,32.34064 -0.0184,1.67553 2.95575,4.36798 4.99646,4.91735 10.74585,2.89289 21.59961,5.42371 32.49494,7.70246 4.17615,0.87347 8.66083,1.4964 12.83447,0.94433 17.97547,-2.37756 35.96759,-4.79785 53.79382,-8.07275 11.37012,-2.08875 21.69013,-7.42206 31.37629,-13.79675 2.50341,-1.64752 5.06671,-3.20929 7.65222,-4.72559 4.13202,-2.42309 7.21246,-5.83984 7.32702,-10.67224 0.24768,-10.44952 0.28388,-20.92676 -0.26373,-31.35748 -0.1477,-2.81452 -2.2868,-5.8385 -4.21222,-8.19385 -11.19787,-13.69891 -25.87457,-23.4552 -39.84363,-33.8811 -9.25805,-6.90985 -16.4165,-15.51221 -23.7431,-24.13153 -5.17523,-6.08838 -10.81586,-11.82203 -15.57233,-18.21711 -10.22729,-13.75085 -18.77887,-27.92993 -22.42169,-45.51434 -6.56488,-31.6897 -4.73749,-63.393 -3.23181,-95.08722 1.37695,-28.9834 9.99884,-56.23413 24.76941,-81.41833 4.46246,-7.60858 8.01569,-15.76166 12.64386,-23.25898 5.58685,-9.05017 11.578,-17.88894 17.93805,-26.41342 6.96765,-9.3388 14.14038,-18.59628 22.01123,-27.16595 5.81262,-6.32862 12.57544,-11.91464 19.47455,-17.0846 10.2417,-7.67471 20.95538,-14.72256 31.53064,-21.94568 1.47784,-1.00936 3.28289,-1.57293 4.98407,-2.21701 20.18799,-7.6434 41.16504,-10.52853 62.54622,-8.66348 7.9468,0.69321 15.6797,4.05035 23.4639,6.34958 13.0663,3.85941 25.9008,8.76358 39.1827,11.57541 23.8754,5.05435 44.6276,16.24832 64.2007,30.08545 8.559,6.05069 16.8196,12.56335 24.8827,19.26663 14.0213,11.65656 23.0258,26.98602 30.8445,43.16254 4.0538,8.38733 8.6591,16.50647 12.8159,24.84607 5.5867,11.20776 6.8031,23.24939 6.1654,35.55145 -0.7489,14.45148 -0.7672,29.01324 -6.1336,42.82117 -0.5896,1.51715 -0.7517,3.25665 -0.833,4.90673 -1.2243,24.82441 -4.4447,49.3183 -10.5918,73.47162 -3.1562,12.40088 -4.7529,25.19092 -7.3604,37.74146 -2.4436,11.76233 -5.3121,23.47192 -12.634,33.36828 -2.4506,3.31202 -5.203,6.66828 -8.5131,9.02942 -12.7208,9.0741 -25.4447,18.20337 -38.7201,26.41956 -8.7447,5.41223 -12.9424,12.90533 -14.9249,22.46216 -1.484,7.15362 -3.066,14.33752 -5.3814,21.24755 -1.2166,3.63105 -4.2987,6.5965 -6.1704,10.06128 -1.5069,2.78974 -3.7729,6.03424 -3.4423,8.80762 1.7677,14.83246 3.9586,29.63233 6.6267,44.33026 0.9747,5.37018 4.8001,8.95533 10.2194,11.39344 5.8454,2.62994 10.7236,7.38916 16.5466,10.09417 7.0244,3.26325 14.5,5.70838 21.9907,7.72675 2.4492,0.65991 5.8747,-0.55213 8.2986,-1.90363 5.4976,-3.06524 10.8306,-6.50824 15.8693,-10.28015 2.6419,-1.9776 5.1623,-4.65338 6.6186,-7.57208 3.4847,-6.98474 7.2518,-14.05774 9.1707,-21.53986 2.7564,-10.74609 4.8772,-21.82391 5.6537,-32.87359 1.5719,-22.36866 6.0114,-44.15924 10.8168,-65.96216 4.0453,-18.35474 8.0404,-36.7536 11.0327,-55.29834 3.0678,-19.01093 7.2978,-37.37683 15.831,-54.90473 5.7913,-11.89599 8.2888,-25.36859 13.7795,-37.445 6.8689,-15.10736 15.0427,-29.64698 23.1223,-44.17084 8.0491,-14.46948 18.3118,-27.31 29.7531,-39.33606 14.2878,-15.01813 31.9344,-22.30878 52.1115,-22.86249 16.0887,-0.4414 32.3666,-0.18945 48.2964,1.83344 11.8642,1.50659 23.9677,4.93054 34.781,10.01678 16.1894,7.61493 31.9086,16.58887 46.7808,26.54834 16.7303,11.2038 27.6947,27.71137 35.4349,46.16852 5.6544,13.48309 12.3137,26.81311 15.7545,40.88861 4.3676,17.86627 5.8647,36.42847 8.7493,54.66681 0.7733,4.88849 2.3121,9.65472 3.1085,14.54077 1.1173,6.85596 2.7133,13.78205 2.6278,20.65979 -0.335,26.9798 -2.0179,53.95996 -1.753,80.92572 0.3253,33.13391 2.057,66.25513 3.3118,99.37677 0.1107,2.92121 0.5222,6.1969 1.9483,8.63178 3.7962,6.48095 3.4218,13.24243 3.2034,20.32617 -0.27,8.76117 0.063,17.60834 1.0914,26.30524 0.3563,3.0123 3.0434,6.3277 5.5696,8.4066 12.4513,10.2458 25.2423,20.0775 37.8434,30.1428 13.2224,10.5617 22.4768,24.4618 31.6518,38.3557 6.507,9.8536 12.6934,19.9269 18.7686,30.0549 6.7659,11.2795 12.9311,22.9306 19.9885,34.0185 3.148,4.9456 7.4878,9.2996 11.8904,13.2494 15.8894,14.2549 22.6191,43.8553 13.416,61.5537 -2.7421,5.2732 -7.2522,9.7941 -9.1903,15.282 -3.6425,10.3136 -5.6352,21.1976 -8.9747,31.6329 -5.9755,18.6715 -4.7232,37.7138 -4.1236,56.8316 0.5481,17.4709 -0.016,34.9778 0.5752,52.4463 0.5907,17.4555 2.2467,34.8729 2.9939,52.3259 0.7621,17.802 1.0756,35.6256 1.3904,53.4431 0.091,5.1314 -0.1199,10.2592 -3.9796,14.5414 -3.2263,3.5793 -6.7166,5.5149 -11.7018,5.3872 -9.815,-0.2516 -19.6542,-0.3251 -29.4595,0.09 -5.9265,0.251 -11.793,2.1082 -17.7133,2.2716 -10.4718,0.2889 -20.974,0.074 -31.4446,-0.3747 -9.9716,-0.4275 -19.9718,-1.0092 -29.862,-2.2814 -10.4281,-1.3415 -20.7409,-3.5796 -31.1037,-5.4287 -0.9817,-0.1752 -1.9535,-0.4213 -2.9409,-0.547 -9.1684,-1.168 -18.3616,-2.167 -27.4989,-3.5391 -4.058,-0.6092 -8.0116,-1.9336 -12.0002,-2.9807 -6.5208,-1.7116 -13.0319,-3.4601 -19.5456,-5.199 -0.6412,-0.1712 -1.2598,-0.4963 -1.9078,-0.5616 -8.5453,-0.8596 -17.1017,-1.6154 -25.6397,-2.5413 -7.2071,-0.7816 -14.3835,-1.8481 -21.5931,-2.6024 -4.7851,-0.5005 -9.6045,-0.6727 -14.4102,-1.4751 7.0324,0.073 14.0629,0.6798 21.1017,1.1687 4.9578,0.3445 9.9269,0.5292 14.8909,0.7851 0.08,-0.5795 0.1609,-1.1591 0.2412,-1.7387 -1.5098,-0.9247 -2.9095,-2.1893 -4.547,-2.719 -10.5575,-3.4156 -21.1798,-6.6302 -31.7554,-9.9912 -8.3618,-2.6576 -16.733,-5.2977 -25.0164,-8.1859 -10.2852,-3.5862 -20.4574,-7.4971 -30.7347,-11.1071 -3.8918,-1.3671 -7.9498,-2.2558 -11.9167,-3.4156 -9.4926,-2.7752 -18.9745,-5.5874 -28.4642,-8.3728 -3.4903,-1.0244 -6.9726,-2.0831 -10.4907,-3.0039 -5.6043,-1.4672 -11.5014,-2.1869 -16.8021,-4.3699 -12.286,-5.0602 -25.0378,-6.5165 -38.0382,-5.7156 -11.2284,0.6917 -22.4275,2.0952 -33.5878,3.5746 -7.3762,0.9779 -14.7622,2.2514 -21.9619,4.101 -10.0759,2.5883 -20.0168,5.7271 -29.9447,8.8548 -4.0858,1.2873 -8.2247,2.7416 -11.925,4.848 -7.9422,4.5217 -15.7077,9.3747 -23.3589,14.3771 -3.7735,2.4672 -7.1321,5.5685 -10.6785,8.383 0.1381,0.4834 0.2763,0.9668 0.4143,1.4502 2.5354,0.1928 5.0708,0.5524 7.6062,0.5528 29.4911,0 58.9947,-0.7483 88.4716,0.023 l 100.7407,2.6349 c 20.6723,0.5407 41.4006,2.4677 62.1182,3.6183 1.573,0.087 3.1132,0.7648 4.6687,1.1677 -10.7348,-0.1094 -21.4727,-0.1075 -32.2023,-0.4039 -2.7765,-0.077 -5.5142,-1.5204 -8.2916,-1.6035 -37.904,-1.1322 -75.7152,-4.3921 -113.7148,-3.5922 -37.133,0.7817 -74.2954,0.153 -111.4448,0.2147 -5.6595,0.01 -10.037,2.8585 -13.8163,6.9097 -3.0555,3.2755 -5.9735,6.8542 -9.5842,9.4039 -10.5055,7.4187 -15.7639,18.8112 -22.3893,29.0552 -8.4404,13.0504 -22.5995,17.6149 -35.871,9.5026 -4.0581,-2.4806 -6.69,-7.5183 -9.5578,-11.673 -5.0739,-7.3505 -9.7278,-14.9899 -14.75941,-22.3707 -2.43097,-3.5662 -5.4964,-6.6975 -7.96338,-10.2422 -4.3183,-6.2046 -10.04718,-9.9838 -17.83807,-11.4848 -0.89252,-2.0216 -0.96998,-4.3629 -2.12958,-5.1938 -8.62,-6.1775 -17.38818,-12.1565 -26.25623,-17.9747 -3.31347,-2.174 -6.96173,-5.1866 -10.55395,-5.326 -9.60102,-0.3725 -17.04706,-6.3365 -25.86658,-8.5091 -10.12964,-2.4953 -20.08197,-5.8092 -30.29651,-7.8328 -9.70215,-1.9221 -19.69946,-2.306 -29.46753,-3.9557 -17.24926,-2.9132 -34.00928,-0.4869 -50.64325,3.8418 -3.02502,0.7874 -5.80737,2.4704 -8.80823,3.3936 -9.82415,3.0223 -19.72277,5.8028 -29.54333,8.8363 -7.26019,2.2424 -14.43567,4.7577 -21.66309,7.1075 -7.39642,2.405 -15.21862,3.9185 -22.13861,7.2912 -19.69329,9.5977 -41.08874,13.6998 -61.69629,20.3287 -5.96038,1.9172 -11.63751,4.7154 -17.44445,7.1097 0.15173,0.7574 0.30346,1.5148 0.4552,2.2721 2.97607,0 5.95221,0 9.36291,0 3.33234,0.3009 6.2301,0.6045 9.12781,0.9081 z"
       id="path370"
       sodipodi:nodetypes="ccsscssssssssssssssssssssscsssssssssssssssssssssssssssssscssssssssssssssssssssscsssssssssssssssssssssssssssssssssssssssssssssssssssssssssscssscsscscccssssssssssscsccsssscscsssssssssccssssssssscscccc" /><path
       fill="#373637"
       opacity="1"
       stroke="none"
       d="m 1365.354,1471.5056 c -1.9473,-0.4383 -3.4875,-1.1157 -5.0605,-1.2031 -20.7176,-1.1506 -41.6263,-0.8403 -62.1182,-3.6183 -33.5798,-4.552 -67.1666,-2.1132 -100.7407,-2.6349 -29.4834,-0.4584 -58.9805,-0.018 -88.4716,-0.023 -2.5354,-4e-4 -5.0708,-0.36 -7.6062,-0.5528 -0.138,-0.4834 -0.2762,-0.9668 -0.4143,-1.4502 3.5464,-2.8145 6.905,-5.9158 10.6785,-8.383 7.6512,-5.0024 15.4167,-9.8554 23.3589,-14.3771 3.7003,-2.1064 7.8392,-3.5607 11.925,-4.848 9.9279,-3.1277 19.8688,-6.2665 29.9447,-8.8548 7.1997,-1.8496 14.5857,-3.1231 21.9619,-4.101 11.1603,-1.4794 22.3594,-2.8829 33.5878,-3.5746 13.0004,-0.8009 25.7522,0.6554 38.0382,5.7156 5.3007,2.183 11.1978,2.9027 16.8021,4.3699 3.5181,0.9208 7.0004,1.9795 10.4907,3.0039 9.4897,2.7854 18.9716,5.5976 28.4642,8.3728 3.9669,1.1598 8.0249,2.0485 11.9167,3.4156 10.2773,3.61 20.4495,7.5209 30.7347,11.1071 8.2834,2.8882 16.6546,5.5283 25.0164,8.1859 10.5756,3.361 21.1979,6.5756 31.7554,9.9912 1.6375,0.5297 3.0372,1.7943 4.547,2.719 -0.08,0.5796 -0.1608,1.1592 -0.2412,1.7387 -4.964,-0.2559 -9.9331,-0.4406 -14.8909,-0.7851 -7.0388,-0.4889 -14.0693,-1.0954 -21.4108,-1.414 -1.1422,0.2451 -1.9769,0.2523 -3.4048,-0.056 -7.8191,-3.0802 -15.1628,-4.7615 -22.9088,-2.7408 -0.5207,0.011 -1.0416,0.021 -1.9542,0 z"
       id="path372" /><path
       fill="#5a535e"
       opacity="1"
       stroke="none"
       d="m 786.52716,1465.3606 c 2.55988,-0.8683 5.52911,-2.0577 8.50092,-2.0645 52.97503,-0.1176 105.95038,-0.085 158.92566,-0.119 2.54034,0 5.08044,-0.3252 9.07208,-0.5981 -1.8432,-2.2454 -2.51575,-3.5969 -3.60596,-4.3082 -8.61603,-5.6216 -17.16131,-11.3812 -26.05829,-16.5281 -3.45929,-2.0011 -7.76202,-2.5524 -11.69086,-3.7299 -1.7348,-0.5198 -3.51477,-0.8922 -5.24047,-1.4382 -11.47675,-3.632 -22.85065,-7.6325 -34.44556,-10.8335 -8.71564,-2.4061 -17.6369,-4.6674 -26.59997,-5.4347 -12.90339,-1.1047 -25.93311,-0.6512 -38.89911,-1.1292 -13.18512,-0.4859 -24.91974,4.5171 -36.94031,8.8431 -7.59308,2.7325 -15.62,4.2337 -23.35004,6.6185 -8.22174,2.5365 -16.3642,5.3485 -24.46759,8.2462 -14.9779,5.3561 -29.78442,11.2192 -44.88568,16.1931 -12.07526,3.9771 -24.51062,6.8498 -36.72424,10.4239 -3.79401,1.1103 -8.46064,1.3028 -9.71485,6.7475 -2.97387,0.3253 -5.95001,0.3253 -8.92608,0.3253 -0.15174,-0.7573 -0.30347,-1.5147 -0.4552,-2.2721 5.80694,-2.3943 11.48407,-5.1925 17.44445,-7.1097 20.60755,-6.6289 42.003,-10.731 61.69629,-20.3287 6.91999,-3.3727 14.74219,-4.8862 22.13861,-7.2912 7.22742,-2.3498 14.4029,-4.8651 21.66309,-7.1075 9.82056,-3.0335 19.71918,-5.814 29.54333,-8.8363 3.00086,-0.9232 5.78321,-2.6062 8.80823,-3.3936 16.63397,-4.3287 33.39399,-6.755 50.64325,-3.8418 9.76807,1.6497 19.76538,2.0336 29.46753,3.9557 10.21454,2.0236 20.16687,5.3375 30.29651,7.8328 8.81952,2.1726 16.26556,8.1366 25.86658,8.5091 3.59222,0.1394 7.24048,3.152 10.55395,5.326 8.86805,5.8182 17.63623,11.7972 26.25623,17.9747 1.1596,0.8309 1.23706,3.1722 1.74426,5.0463 -2.05102,0.4135 -4.03064,0.7518 -6.01044,0.7534 -56.90808,0.045 -113.81616,0.059 -170.72424,0.062 -1.15717,10e-5 -2.31439,-0.1724 -3.88208,-0.4938 z"
       id="path376" /></g></g>
</svg>
