<?xml version="1.0" encoding="UTF-8" standalone="no"?>
<!-- Generator: Adobe Illustrator 16.0.0, SVG Export Plug-In . SVG Version: 6.00 Build 0)  -->

<svg
   version="1.1"
   id="Layer_1"
   x="0px"
   y="0px"
   width="255px"
   height="88px"
   viewBox="0 0 255 88"
   enable-background="new 0 0 255 88"
   xml:space="preserve"
   xmlns="http://www.w3.org/2000/svg"
   xmlns:svg="http://www.w3.org/2000/svg"><defs
   id="defs173" />
<g
   id="g168">
	
	
	
	
	
	
	
	
	
	
	
	
	
	
	
	
	
	
	
	
	
	
	
	
	
	
	
	
	
	
	
	
	
	
	
	
	
	
	
	<path
   fill="#ac96c5"
   d="m 58.27193,22.884656 c 0.721,1.649 -0.619,8.146 -0.619,8.146 -0.31,1.135 -3.918,20.622 -3.918,20.622 0,0 15.466,-29.387 19.9,-29.283 0.207,0 0.412,-0.206 0.619,-0.31 2.372,-0.618 4.846,0.618 5.981,1.649 1.752,1.754 1.752,5.053 1.752,5.053 0.826,6.083 -0.619,13.404 -0.619,13.404 2.166,-4.33 10.415,-20.932 14.744,-20.932 6.188,0 7.632,4.538 7.839,7.218 0.411,5.774 -2.579,17.839 -4.229,23.613 -1.135,3.814 -2.166,7.63 -2.475,10.208 -0.311,2.371 0.617,2.784 1.443,2.784 1.65,0 11.754,-17.015 11.754,-17.015 0.619,0.413 1.443,1.96 0.825,3.197 -0.618,1.236 -6.083,10.518 -7.319,12.27 -2.579,4.021 -4.125,4.229 -5.879,4.229 -4.434,-0.207 -7.012,-5.259 -7.012,-5.259 -3.402,-5.259 -2.269,-9.485 -1.958,-12.683 0.206,-3.196 1.34,-14.952 1.34,-14.952 -2.99,3.713 -9.796,18.974 -12.064,25.675 -1.752,6.807 -3.918,8.456 -5.259,8.456 -3.402,0 -4.33,-3.505 -5.155,-5.155 -1.031,-1.753 0.207,-11.033 0.207,-11.033 0.412,-2.99 3.093,-17.942 3.093,-17.942 -1.135,0.516 -14.023,28.356 -19.694,33.512 -3.3,0 -5.156,-3.299 -5.156,-3.299 -2.166,-3.3 -2.166,-6.702 -2.166,-9.28 0,-8.043 6.908,-36.089 6.908,-36.089 5.157,-1.031 7.117,3.196 7.117,3.196"
   id="path90" />
	
	
	<path
   fill="#ac96c5"
   d="m 206.33793,44.847656 c -2.784,1.443 -2.99,0 -2.99,0 0.722,-0.619 1.237,-2.99 1.754,-3.919 0.516,-1.03 0.516,-4.536 0,-5.877 -0.207,-0.928 -1.238,-0.412 -1.548,-0.207 -2.062,1.342 -5.774,8.25 -7.733,11.343 -3.607,6.703 -4.536,10.725 -4.846,14.643 -0.309,5.155 4.846,5.053 4.846,5.053 8.354,-0.516 14.538,-10.415 14.538,-10.415 0.928,1.444 0.104,3.609 0.104,3.609 -0.722,1.442 -2.888,5.465 -8.248,8.352 -4.435,1.959 -8.352,1.753 -10.93,0.825 -10.414,-3.094 -8.456,-9.486 -8.043,-13.302 1.958,-18.251 16.085,-33.717 16.085,-33.717 11.858,1.649 11.96,6.495 12.478,10.517 0.926,8.764 -2.375,11.445 -5.467,13.095"
   id="path96" />
	
	
	
	<path
   fill="#ac96c5"
   d="m 134.26293,28.040656 c -0.722,1.753 -11.549,11.961 -16.909,23.612 -3.403,7.322 -4.126,12.168 -2.785,12.064 2.372,-0.309 16.188,-19.694 19.385,-27.428 0.929,-2.063 2.165,-7.012 2.165,-7.012 3.094,-0.413 5.982,4.021 5.982,4.021 -0.413,3.506 -3.404,13.92 -4.332,19.076 -0.723,3.608 -1.443,12.063 -1.443,12.063 3.196,-0.722 12.682,-18.868 12.682,-18.868 l 0.206,2.061 c 0.62,1.754 -8.247,19.488 -12.27,21.345 -4.743,0.413 -6.289,-2.474 -7.527,-4.228 -1.03,-1.547 -0.412,-14.848 -0.412,-14.848 -1.031,2.783 -3.918,9.177 -6.806,12.682 -3.504,4.229 -5.052,4.434 -6.805,4.641 -4.435,0.619 -5.671,-2.371 -6.599,-4.949 -1.548,-5.568 -1.341,-11.754 1.236,-17.734 4.229,-9.591 16.498,-23.305 16.498,-23.305 1.959,-0.516 6.908,5.156 6.908,5.156 0.62,0.929 0.826,1.651 0.826,1.651"
   id="path104" />
	<path
   fill="#ac96c5"
   d="m 172.00193,28.040656 c -0.723,1.753 -11.549,11.961 -16.91,23.612 -3.402,7.322 -4.124,12.168 -2.784,12.064 2.373,-0.309 16.188,-19.694 19.385,-27.428 0.928,-2.063 2.165,-7.012 2.165,-7.012 3.094,-0.413 5.981,4.021 5.981,4.021 -0.412,3.506 -3.402,13.92 -4.331,19.076 -0.722,3.608 -1.443,12.063 -1.443,12.063 3.197,-0.722 12.683,-18.868 12.683,-18.868 l 0.206,2.061 c 0.619,1.754 -8.248,19.488 -12.271,21.345 -4.743,0.413 -6.289,-2.474 -7.526,-4.228 -1.031,-1.547 -0.412,-14.848 -0.412,-14.848 -1.032,2.783 -3.918,9.177 -6.807,12.682 -3.505,4.229 -5.051,4.434 -6.805,4.641 -4.435,0.619 -5.671,-2.371 -6.6,-4.949 -1.547,-5.568 -1.341,-11.754 1.237,-17.734 4.229,-9.591 16.498,-23.305 16.498,-23.305 1.96,-0.516 6.908,5.156 6.908,5.156 0.62,0.929 0.826,1.651 0.826,1.651"
   id="path106" />
	
	
	
	
	
	
	
	
	
	
	
	
	
		
	
	
	
	
	
	
		
	
		
	
	
	
	
	
	
	
	
	
	
</g>
</svg>
